<svg xmlns="http://www.w3.org/2000/svg"
     width="256"
     height="256"
     viewBox="0 0 256 256">

  <defs>
    <linearGradient id="bg"
                    x1="0"
                    y1="0"
                    x2="1"
                    y2="1">
      <stop offset="0%" stop-color="#6C63FF"/>
      <stop offset="100%" stop-color="#3F36C9"/>
    </linearGradient>
  </defs>

  <rect x="12" y="12"
        width="232"
        height="232"
        rx="55"
        fill="url(#bg)"/>

  <rect x="55" y="43"
        width="146"
        height="58"
        rx="15"
        fill="#101522"/>

  <text x="182"
        y="82"
        text-anchor="end"
        font-family="sans-serif"
        font-size="29"
        font-weight="bold"
        fill="white">NEX</text>

  <g fill="#ffffff">
    <rect x="55" y="119" width="30" height="30" rx="8"/>
    <rect x="95" y="119" width="30" height="30" rx="8"/>
    <rect x="135" y="119" width="30" height="30" rx="8"/>
    <rect x="175" y="119" width="26" height="30" rx="8"/>

    <rect x="55" y="159" width="30" height="30" rx="8"/>
    <rect x="95" y="159" width="30" height="30" rx="8"/>
    <rect x="135" y="159" width="30" height="30" rx="8"/>
    <rect x="175" y="159" width="26" height="30" rx="8"/>

    <rect x="55" y="199" width="70" height="18" rx="8"/>
    <rect x="135" y="199" width="66" height="18" rx="8"/>
  </g>
</svg>
